<?xml version="1.0" standalone="no"?>
<!DOCTYPE svg PUBLIC "-//W3C//DTD SVG 20010904//EN"
 "http://www.w3.org/TR/2001/REC-SVG-20010904/DTD/svg10.dtd">
<svg version="1.0" xmlns="http://www.w3.org/2000/svg"
 width="512.000000pt" height="512.000000pt" viewBox="0 0 512.000000 512.000000"
 preserveAspectRatio="xMidYMid meet">
<metadata>
Created by potrace 1.14, written by Peter Selinger 2001-2017
</metadata>
<g transform="translate(0.000000,512.000000) scale(0.100000,-0.100000)"
fill="#000000" stroke="none">
<path d="M1915 5078 c-40 -11 -59 -27 -77 -63 -9 -16 -93 -221 -188 -455 -95
-234 -178 -438 -186 -455 -7 -16 -27 -66 -45 -110 -17 -44 -36 -91 -42 -105
-5 -14 -11 -29 -12 -35 -2 -5 -12 -30 -23 -55 -16 -36 -341 -834 -809 -1990
-73 -180 -93 -229 -108 -265 -149 -355 -308 -767 -310 -805 -5 -77 28 -145
109 -226 39 -39 97 -87 129 -107 138 -88 333 -171 497 -212 132 -33 151 -36
265 -40 154 -7 262 27 322 99 16 20 63 120 105 223 95 232 1146 2820 1308
3218 64 160 168 415 230 567 123 304 126 319 73 372 -49 49 -137 50 -182 2
-11 -12 -62 -123 -112 -246 -50 -124 -96 -236 -102 -250 -5 -14 -11 -29 -13
-35 -2 -5 -21 -53 -42 -105 -46 -111 -971 -2385 -982 -2415 -4 -11 -9 -24 -10
-30 -2 -5 -14 -34 -27 -63 -12 -29 -66 -159 -118 -290 -53 -130 -100 -246
-105 -257 -5 -11 -56 -136 -114 -279 -58 -142 -107 -261 -110 -264 -9 -8 -153
-7 -206 1 -100 16 -269 69 -380 119 -118 53 -280 170 -280 202 0 11 107 284
145 371 7 17 41 100 75 185 34 85 68 169 75 185 7 17 18 44 25 60 55 133 949
2337 972 2395 16 41 35 89 43 105 7 17 32 77 55 135 23 58 48 119 55 135 7 17
70 171 139 343 142 350 143 356 80 412 -19 16 -40 30 -47 31 -7 0 -19 2 -27 3
-8 2 -28 -1 -45 -6z"/>
<path d="M3320 4327 c-63 -160 -167 -424 -230 -584 l-116 -293 113 -292 c62
-161 132 -340 155 -398 22 -58 49 -125 58 -150 52 -136 106 -275 170 -440 40
-102 80 -208 90 -236 l18 -51 -605 1 c-333 1 -609 -1 -613 -4 -5 -3 -56 -127
-114 -275 -59 -149 -110 -279 -115 -290 -5 -11 -25 -60 -44 -110 l-35 -90 888
-3 889 -2 20 -53 c24 -64 198 -494 211 -522 5 -11 30 -72 55 -135 72 -181 93
-211 166 -230 25 -7 167 -11 383 -11 306 0 346 2 379 17 49 23 82 88 74 147
-3 33 -173 486 -217 582 -5 11 -70 175 -144 365 -125 321 -182 467 -291 745
-99 251 -177 452 -253 645 -44 113 -121 309 -171 435 -182 464 -284 724 -347
890 -36 94 -70 179 -75 190 -11 25 -123 309 -152 388 -11 31 -23 57 -26 57 -4
0 -58 -132 -121 -293z"/>
<path d="M2156 4537 c-16 -12 -59 -117 -581 -1402 -147 -363 -337 -831 -422
-1040 -85 -209 -202 -497 -260 -640 -58 -143 -113 -278 -123 -300 -42 -95 -58
-151 -49 -168 29 -52 88 -38 114 27 9 22 92 228 185 456 93 228 273 672 399
985 127 314 237 584 245 600 8 17 71 172 141 345 70 173 132 326 138 340 5 14
18 45 27 70 10 25 68 169 130 320 167 408 152 365 132 390 -21 25 -55 33 -76
17z"/>
<path d="M2522 4392 c-9 -9 -38 -69 -64 -132 -26 -63 -194 -477 -373 -920
-179 -443 -332 -818 -339 -835 -76 -172 -659 -1625 -658 -1638 2 -40 53 -62
89 -39 6 4 125 286 263 627 138 341 258 634 265 650 7 17 142 350 300 740 158
391 359 885 446 1100 88 214 159 402 159 417 0 45 -54 64 -88 30z"/>
</g>
</svg>
